<?xml version="1.0" encoding="UTF-8" standalone="no"?>
<svg xmlns="http://www.w3.org/2000/svg"
     xmlns:xlink="http://www.w3.org/1999/xlink"
     width="60px" height="40px" viewBox="0 0 60 40"
     style="stroke:none">
<title>Graphic window number 0</title>
<desc>
Creator: GL2PS 1.3.2, (C) 1999-2006 Christophe Geuzaine (geuz@geuz.org)
For: Scilab
CreationDate: Mon Oct 18 08:20:51 2010
</desc>
<defs>
</defs>
<polygon fill="#ffffff" points="0,0 60,0 60,40 0,40"/>
<g>
<polygon fill="#ffffff" points="0.600006,39.6 0.600006,0.400002 0.600006,39.6"/>
<polygon fill="#ffffff" points="0.600006,0.400002 0.600006,0.400002 0.600006,39.6"/>
<polygon fill="#ffffff" points="0.600006,39.6 59.4,39.6 0.600006,39.6"/>
<polygon fill="#ffffff" points="59.4,39.6 59.4,39.6 0.600006,39.6"/>
<polygon fill="#ffffff" points="0.600006,39.6 59.4,39.6 0.600006,0.400002"/>
<polygon fill="#ffffff" points="59.4,39.6 59.4,0.400002 0.600006,0.400002"/>
<polygon fill="#ffffff" points="0.600006,0.400002 0.600006,39.6 59.4,0.400002"/>
<polygon fill="#ffffff" points="0.600006,39.6 59.4,39.6 59.4,0.400002"/>
<polyline fill="none" stroke="#000000" stroke-width="1" points="0.600006,0.400002 0.600006,39.6 59.4,39.6 59.4,0.400002 0.600006,0.400002"/>
<polygon fill="#000000" points="60,0 59.4,0 60,40"/>
<polygon fill="#000000" points="59.4,0 59.4,40 60,40"/>
<polyline fill="none" stroke="#000000" stroke-width="0.5" points="59.4,0 59.4,40"/>
<polygon fill="#000000" points="0.600006,20 0,19.8 0,20.2"/>
<polyline fill="none" stroke="#000000" stroke-width="0.5" points="0,20.2 0.600006,20 0,19.8"/>
<polygon fill="#ff0000" points="30.3,0 29.7,0 30,0.400002"/>
<polyline fill="none" stroke="#ff0000" stroke-width="0.5" points="29.7,0 30,0.400002 30.3,0"/>
<text fill="#000000" style="stroke:none" x="8" y="16" transform="rotate(0, 8, 16)" font-size="13" font-family="SansSerif" font-style="normal" font-weight="normal">50 -&gt; 1</text>
<text fill="#000000" style="stroke:none" x="6" y="35" transform="rotate(0, 6, 35)" font-size="13" font-family="SansSerif" font-style="normal" font-weight="normal">par2ser</text>
</g>
</svg>
